# Blender v2.78 (sub 0) OBJ File: 'Sketchfab_2015_09_29_19_40_53.blend.blend'
# www.blender.org
mtllib plane.mtl
o ship_Cube.001
v 0.781084 1.000000 -1.000000
v 0.781084 1.000000 0.599756
v 0.781084 0.500000 -1.000000
v 0.781084 0.500000 0.599756
v 0.781084 1.000000 0.000000
v 0.781084 0.574898 0.000000
v 0.281084 1.000000 -1.000000
v 0.281084 1.000000 1.000000
v 0.281084 0.500000 -1.000000
v 0.281084 0.500000 1.000000
v 0.281084 1.179665 0.000000
v 0.281084 0.445836 0.000000
v 0.173622 1.400000 1.000000
v 0.281084 0.763507 1.793829
v 0.281084 0.468594 1.622819
v 0.173622 0.999438 1.930637
v 0.173451 0.690475 2.378701
v 0.173451 0.445312 2.236540
v 0.281084 1.000000 0.000000
v 0.689468 1.168210 -1.000000
v 0.689468 1.168210 -0.134321
v 0.372700 1.168210 -1.000000
v 0.372700 1.168210 -0.134321
v 0.699568 0.330004 -1.000000
v 0.699568 0.330004 -0.134321
v 0.362601 0.330004 -1.000000
v 0.362601 0.330004 -0.134321
v 0.836008 1.055022 -1.304697
v 0.836008 0.445174 -1.304697
v 0.226161 1.055022 -1.304697
v 0.226161 0.445174 -1.304697
v 0.724264 1.260187 -1.304697
v 0.337904 1.260187 -1.304697
v 0.736582 0.237831 -1.304697
v 0.325586 0.237831 -1.304697
v 0.714914 0.933712 -0.923826
v 0.714914 0.566052 -0.923826
v 0.347254 0.933712 -0.923826
v 0.347254 0.566052 -0.923826
v 0.647547 1.057400 -0.923826
v 0.414621 1.057400 -0.923826
v 0.654973 0.441051 -0.923826
v 0.407195 0.441051 -0.923826
v 2.414106 0.213953 -0.597455
v 2.414106 0.264237 -0.597455
v 2.414106 0.235056 -0.272798
v 2.414106 0.235056 -1.138769
v 0.781084 0.445836 0.000000
v 0.746796 1.062955 -0.919498
v 0.735276 1.069326 -0.206404
v 0.723757 1.105256 -0.919498
v 1.568816 1.541218 -1.493804
v 1.568816 1.541218 -1.057065
v 1.556655 1.563546 -1.493804
v 1.597595 0.329895 -0.298727
v 1.275713 0.367528 -1.331795
v 1.597595 0.367528 0.163479
v 1.597595 0.419568 -0.298727
v 0.692561 0.911476 0.670618
v 0.692561 0.588524 0.670618
v 0.369608 0.911476 0.929138
v 0.369608 0.588524 0.929138
v 0.692561 0.911476 0.481168
v 0.692561 0.588524 0.481168
v 0.369608 0.911476 0.739688
v 0.369608 0.588524 0.739688
v -0.781084 1.000000 -1.000000
v -0.781084 1.000000 0.599756
v 0.000000 1.000000 -1.000000
v 0.000000 0.468594 1.622819
v -0.781084 0.500000 -1.000000
v -0.781084 0.500000 0.599756
v 0.000000 0.500000 -1.000000
v 0.000000 0.500000 1.000000
v -0.781084 1.000000 0.000000
v 0.000000 1.179665 0.000000
v -0.781084 0.574898 0.000000
v 0.000000 0.445836 0.000000
v -0.281084 1.000000 -1.000000
v -0.281084 1.000000 1.000000
v -0.281084 0.500000 -1.000000
v -0.281084 0.500000 1.000000
v -0.281084 1.179665 0.000000
v -0.281084 0.445836 0.000000
v 0.000000 1.400000 1.000000
v -0.173622 1.400000 1.000000
v -0.281084 0.763507 1.793829
v -0.281084 0.468594 1.622819
v 0.000000 0.999438 1.930637
v -0.173622 0.999438 1.930637
v 0.000000 0.445312 2.236540
v -0.173451 0.690475 2.378701
v -0.173451 0.445312 2.236540
v 0.000000 0.690475 2.378701
v -0.281084 1.000000 0.000000
v -0.689468 1.168210 -1.000000
v -0.689468 1.168210 -0.134321
v -0.372700 1.168210 -1.000000
v -0.372700 1.168210 -0.134321
v -0.699568 0.330004 -1.000000
v -0.699568 0.330004 -0.134321
v -0.362601 0.330004 -1.000000
v -0.362601 0.330004 -0.134321
v -0.836008 1.055022 -1.304697
v -0.836008 0.445174 -1.304697
v -0.226161 1.055022 -1.304697
v -0.226161 0.445174 -1.304697
v -0.724264 1.260187 -1.304697
v -0.337904 1.260187 -1.304697
v -0.736582 0.237831 -1.304697
v -0.325586 0.237831 -1.304697
v -0.714914 0.933712 -0.923826
v -0.714914 0.566052 -0.923826
v -0.347254 0.933712 -0.923826
v -0.347254 0.566052 -0.923826
v -0.647547 1.057400 -0.923826
v -0.414621 1.057400 -0.923826
v -0.654973 0.441051 -0.923826
v -0.407195 0.441051 -0.923826
v -2.414106 0.213953 -0.597455
v -2.414106 0.264237 -0.597455
v -2.414106 0.235056 -0.272798
v -2.414106 0.235056 -1.138769
v -0.781084 0.445836 0.000000
v -0.746796 1.062955 -0.919498
v -0.735276 1.069326 -0.206404
v -0.723757 1.105256 -0.919498
v -1.568816 1.541218 -1.493804
v -1.568816 1.541218 -1.057065
v -1.556655 1.563546 -1.493804
v -1.597595 0.329895 -0.298727
v -1.275713 0.367528 -1.331795
v -1.597595 0.367528 0.163479
v -1.597595 0.419568 -0.298727
v -0.692561 0.911476 0.670618
v -0.692561 0.588524 0.670618
v -0.369608 0.911476 0.929138
v -0.369608 0.588524 0.929138
v -0.692561 0.911476 0.481168
v -0.692561 0.588524 0.481168
v -0.369608 0.911476 0.739688
v -0.369608 0.588524 0.739688
vt 0.7045 0.7266
vt 0.7053 0.7609
vt 0.6906 0.7481
vt 0.6905 0.7397
vt 0.7648 0.2865
vt 0.7677 0.2210
vt 0.8219 0.2336
vt 0.8150 0.2833
vt 0.5251 0.7335
vt 0.4096 0.7330
vt 0.4111 0.6389
vt 0.5237 0.6548
vt 0.4636 0.4799
vt 0.2757 0.4799
vt 0.2759 0.4273
vt 0.4634 0.4281
vt 0.3079 0.9420
vt 0.3037 0.9726
vt 0.1317 0.9263
vt 0.1415 0.8974
vt 0.4872 0.9279
vt 0.4888 0.9726
vt 0.7024 0.6371
vt 0.6451 0.4746
vt 0.6443 0.4262
vt 0.6961 0.8597
vt 0.5227 0.8333
vt 0.5571 0.8089
vt 0.7008 0.8233
vt 0.6822 0.9633
vt 0.6795 0.9095
vt 0.7753 0.9046
vt 0.7780 0.9585
vt 0.4592 0.5759
vt 0.3473 0.5721
vt 0.2891 0.7311
vt 0.2906 0.6371
vt 0.3117 0.6540
vt 0.3107 0.7148
vt 0.3291 0.8274
vt 0.6438 0.5106
vt 0.4947 0.5037
vt 0.3065 0.8686
vt 0.1583 0.8490
vt 0.4909 0.8854
vt 0.2916 0.7781
vt 0.1779 0.7911
vt 0.1589 0.4793
vt 0.1592 0.4267
vt 0.0440 0.4587
vt 0.0442 0.4262
vt 0.0524 0.8614
vt 0.0666 0.8118
vt 0.5615 0.7632
vt 0.7758 0.1832
vt 0.8294 0.2013
vt 0.6372 0.5754
vt 0.4895 0.5573
vt 0.7642 0.3226
vt 0.8172 0.3160
vt 0.6323 0.6106
vt 0.0409 0.8904
vt 0.0220 0.8527
vt 0.0363 0.8031
vt 0.7808 0.4602
vt 0.7721 0.4203
vt 0.8314 0.4143
vt 0.8397 0.4516
vt 0.7930 0.5250
vt 0.8593 0.5199
vt 0.8044 0.0879
vt 0.8173 0.0495
vt 0.8835 0.0595
vt 0.8651 0.1019
vt 0.8886 0.2897
vt 0.8923 0.3170
vt 0.9002 0.2165
vt 0.8906 0.2410
vt 0.9072 0.3896
vt 0.9124 0.4186
vt 0.9383 0.4633
vt 0.9457 0.1244
vt 0.9316 0.1503
vt 0.1141 0.6214
vt 0.1018 0.6439
vt 0.0594 0.6439
vt 0.0471 0.6214
vt 0.0471 0.5544
vt 0.0581 0.5317
vt 0.1032 0.5317
vt 0.1141 0.5544
vt 0.4589 0.1792
vt 0.5436 0.1794
vt 0.5987 0.3281
vt 0.5400 0.3298
vt 0.7316 0.1198
vt 0.6968 0.3286
vt 0.1952 0.1797
vt 0.1105 0.1781
vt 0.1896 0.0273
vt 0.2489 0.0281
vt 0.3846 0.2350
vt 0.3476 0.0267
vt 0.5987 0.3372
vt 0.5702 0.7456
vt 0.7504 0.6859
vt 0.7577 0.6843
vt 0.7954 0.8482
vt 0.7925 0.8527
vt 0.8792 0.5955
vt 0.9748 0.6833
vt 0.9366 0.8819
vt 0.8775 0.8287
vt 0.3782 0.0288
vt 0.4881 0.0293
vt 0.6707 0.0268
vt 0.1415 0.3313
vt 0.0315 0.3289
vt 0.3240 0.3281
vt 0.6926 0.4401
vt 0.6926 0.3813
vt 0.7270 0.3813
vt 0.7270 0.4401
vt 0.3895 0.6553
vt 0.3885 0.7160
vt 0.6934 0.5977
vt 0.6921 0.5471
vt 0.7266 0.5471
vt 0.7279 0.5977
vt 0.6921 0.4883
vt 0.7266 0.4883
vt 0.1245 0.7573
vt 0.0491 0.7573
vt 0.0491 0.6984
vt 0.1245 0.6984
vt 0.8598 0.5897
vt 0.8627 0.8394
vt 0.7045 0.7266
vt 0.6905 0.7397
vt 0.6906 0.7481
vt 0.7053 0.7609
vt 0.7648 0.2865
vt 0.8150 0.2833
vt 0.8219 0.2336
vt 0.7677 0.2210
vt 0.5251 0.7335
vt 0.5237 0.6548
vt 0.4111 0.6389
vt 0.4096 0.7330
vt 0.4636 0.4799
vt 0.2757 0.4799
vt 0.3079 0.9420
vt 0.1415 0.8974
vt 0.4872 0.9279
vt 0.7024 0.6371
vt 0.6451 0.4746
vt 0.6961 0.8597
vt 0.7008 0.8233
vt 0.5571 0.8089
vt 0.5227 0.8333
vt 0.7753 0.9046
vt 0.6795 0.9095
vt 0.4592 0.5759
vt 0.3473 0.5721
vt 0.2891 0.7311
vt 0.3107 0.7148
vt 0.3117 0.6540
vt 0.2906 0.6371
vt 0.3291 0.8274
vt 0.4947 0.5037
vt 0.6438 0.5106
vt 0.3065 0.8686
vt 0.1583 0.8490
vt 0.4909 0.8854
vt 0.2916 0.7781
vt 0.1779 0.7911
vt 0.1589 0.4793
vt 0.0440 0.4587
vt 0.0666 0.8118
vt 0.0524 0.8614
vt 0.5615 0.7632
vt 0.8294 0.2013
vt 0.7758 0.1832
vt 0.6372 0.5754
vt 0.4895 0.5573
vt 0.7642 0.3226
vt 0.8172 0.3160
vt 0.6323 0.6106
vt 0.7808 0.4602
vt 0.8397 0.4516
vt 0.8314 0.4143
vt 0.7721 0.4203
vt 0.7930 0.5250
vt 0.8593 0.5199
vt 0.8044 0.0879
vt 0.8651 0.1019
vt 0.8835 0.0595
vt 0.8173 0.0495
vt 0.8923 0.3170
vt 0.8886 0.2897
vt 0.8906 0.2410
vt 0.9002 0.2165
vt 0.9124 0.4186
vt 0.9072 0.3896
vt 0.9383 0.4633
vt 0.9316 0.1503
vt 0.9457 0.1244
vt 0.1141 0.6214
vt 0.1141 0.5544
vt 0.1032 0.5317
vt 0.0581 0.5317
vt 0.0471 0.5544
vt 0.0471 0.6214
vt 0.0594 0.6439
vt 0.1018 0.6439
vt 0.4589 0.1792
vt 0.5400 0.3298
vt 0.5987 0.3281
vt 0.5436 0.1794
vt 0.6968 0.3286
vt 0.7316 0.1198
vt 0.1952 0.1797
vt 0.2489 0.0281
vt 0.1896 0.0273
vt 0.1105 0.1781
vt 0.3846 0.2350
vt 0.3476 0.0267
vt 0.5987 0.3372
vt 0.5702 0.7456
vt 0.7504 0.6859
vt 0.7925 0.8527
vt 0.7954 0.8482
vt 0.7577 0.6843
vt 0.8792 0.5955
vt 0.8775 0.8287
vt 0.9366 0.8819
vt 0.9748 0.6833
vt 0.3782 0.0288
vt 0.4881 0.0293
vt 0.6707 0.0268
vt 0.1415 0.3313
vt 0.0315 0.3289
vt 0.3240 0.3281
vt 0.6926 0.4401
vt 0.7270 0.4401
vt 0.7270 0.3813
vt 0.6926 0.3813
vt 0.3895 0.6553
vt 0.3885 0.7160
vt 0.6934 0.5977
vt 0.7279 0.5977
vt 0.7266 0.5471
vt 0.6921 0.5471
vt 0.7266 0.4883
vt 0.6921 0.4883
vt 0.1245 0.7573
vt 0.1245 0.6984
vt 0.0491 0.6984
vt 0.0491 0.7573
vt 0.8627 0.8394
vt 0.8598 0.5897
vn 0.8782 0.4783 0.0000
vn 0.0000 -0.9572 0.2895
vn 1.0000 0.0000 0.0000
vn 0.0000 -0.9985 0.0541
vn 0.0000 0.9185 0.3954
vn 0.0000 0.9766 -0.2152
vn 0.0000 -0.9985 -0.0541
vn -0.8782 0.4783 0.0000
vn 0.0000 0.0000 -1.0000
vn 0.0270 -0.9974 0.0675
vn 0.6249 0.0000 0.7807
vn 0.0000 1.0000 0.0000
vn -0.8714 -0.4904 -0.0142
vn 0.9486 0.2970 0.1097
vn 0.9827 0.1822 0.0327
vn 0.0000 -0.9987 -0.0504
vn 0.0000 -0.9993 -0.0379
vn 0.9809 -0.0976 0.1683
vn 0.0000 0.9842 -0.1768
vn 0.0000 0.6240 0.7814
vn -0.8767 -0.4204 0.2337
vn 0.0000 -1.0000 0.0000
vn 0.0000 -0.7573 0.6531
vn 0.8767 -0.4204 0.2337
vn 0.8714 -0.4904 -0.0142
vn 0.9300 0.3025 0.2089
vn 0.0000 0.8233 0.5677
vn 0.0000 -0.5016 0.8651
vn 0.8530 0.4646 0.2377
vn 0.0000 0.9573 0.2890
vn -0.8530 0.4646 0.2377
vn -0.9841 0.0000 0.1774
vn 0.9841 0.0000 0.1774
vn -0.8302 0.3981 -0.3903
vn 0.8302 0.3981 -0.3903
vn 0.0000 0.8823 -0.4707
vn -0.8063 -0.4392 -0.3962
vn 0.0000 -0.8827 -0.4700
vn 0.8063 -0.4392 -0.3962
vn -0.9530 0.0000 -0.3030
vn 0.9530 0.0000 -0.3030
vn -0.1174 -0.9903 0.0739
vn -0.1266 -0.9919 -0.0111
vn 0.2163 0.9712 0.1002
vn 0.1410 0.9868 -0.0797
vn 0.8538 0.5206 0.0038
vn -0.4541 -0.2473 -0.8559
vn 0.5041 -0.8636 0.0098
vn 0.8927 0.4482 -0.0476
vn 0.8962 0.4437 0.0036
vn -0.1121 -0.9900 0.0856
vn -0.1925 -0.9812 -0.0138
vn 0.2227 0.9680 0.1157
vn 0.1727 0.9810 -0.0886
vn -1.0000 0.0000 0.0000
vn -0.4508 0.8910 0.0544
vn -0.0270 -0.9974 0.0675
vn -0.6249 0.0000 0.7807
vn -0.9486 0.2970 0.1097
vn -0.9827 0.1822 0.0327
vn -0.9809 -0.0976 0.1683
vn -0.9300 0.3025 0.2089
vn 0.1174 -0.9903 0.0739
vn 0.1266 -0.9919 -0.0111
vn -0.2163 0.9712 0.1002
vn -0.1410 0.9868 -0.0797
vn -0.8538 0.5206 0.0038
vn 0.4541 -0.2473 -0.8559
vn -0.5041 -0.8636 0.0098
vn -0.8927 0.4482 -0.0476
vn -0.8962 0.4437 0.0036
vn 0.1121 -0.9900 0.0856
vn 0.1925 -0.9812 -0.0138
vn -0.2227 0.9680 0.1157
vn -0.1727 0.9810 -0.0886
vn 0.4508 0.8910 0.0544
usemtl Material
s off
f 1/1/1 20/2/1 51/3/1 49/4/1
f 24/5/2 26/6/2 35/7/2 34/8/2
f 5/9/3 2/10/3 4/11/3 6/12/3
f 12/13/4 10/14/4 74/15/4 78/16/4
f 13/17/5 85/18/5 89/19/5 16/20/5
f 13/17/6 11/21/6 76/22/6 85/18/6
f 1/1/3 5/9/3 6/12/3 3/23/3
f 9/24/7 12/13/7 78/16/7 73/25/7
f 7/26/8 19/27/8 23/28/8 22/29/8
f 69/30/9 7/31/9 9/32/9 73/33/9
f 48/34/10 4/35/10 10/14/10 12/13/10
f 8/36/11 10/37/11 62/38/11 61/39/11
f 2/10/12 5/9/12 19/27/12 8/40/12
f 12/13/13 9/24/13 26/41/13 27/42/13
f 8/43/14 13/17/14 16/20/14 14/44/14
f 13/17/15 8/43/15 19/45/15 11/21/15
f 10/46/3 8/43/3 14/44/3 15/47/3
f 74/15/16 10/14/16 15/48/16 70/49/16
f 70/49/17 15/48/17 18/50/17 91/51/17
f 15/47/18 14/44/18 17/52/18 18/53/18
f 7/31/19 69/30/19 76/22/19 11/21/19
f 19/45/3 7/31/3 11/21/3
f 19/27/20 5/9/20 21/54/20 23/28/20
f 21/54/12 20/2/12 22/29/12 23/28/12
f 26/6/21 9/55/21 31/56/21 35/7/21
f 24/57/22 25/58/22 27/42/22 26/41/22
f 48/34/23 12/13/23 27/42/23 25/58/23
f 3/59/24 24/5/24 34/8/24 29/60/24
f 3/61/25 48/34/25 25/58/25 24/57/25
f 14/44/26 16/20/26 17/52/26
f 16/20/27 89/19/27 94/62/27 17/52/27
f 94/63/28 91/64/28 18/53/28 17/52/28
f 20/65/29 1/66/29 28/67/29 32/68/29
f 22/69/30 20/65/30 32/68/30 33/70/30
f 7/71/31 22/72/31 33/73/31 30/74/31
f 9/55/32 7/71/32 30/74/32 31/56/32
f 1/66/33 3/59/33 29/60/33 28/67/33
f 29/60/34 34/8/34 42/75/34 37/76/34
f 35/7/35 31/56/35 39/77/35 43/78/35
f 34/8/36 35/7/36 43/78/36 42/75/36
f 32/68/37 28/67/37 36/79/37 40/80/37
f 33/70/38 32/68/38 40/80/38 41/81/38
f 30/74/39 33/73/39 41/82/39 38/83/39
f 28/67/40 29/60/40 37/76/40 36/79/40
f 31/56/41 30/74/41 38/83/41 39/77/41
f 38/84/9 41/85/9 40/86/9 36/87/9 37/88/9 42/89/9 43/90/9 39/91/9
f 57/92/42 55/93/42 44/94/42 46/95/42
f 55/93/43 56/96/43 47/97/43 44/94/43
f 58/98/44 57/99/44 46/100/44 45/101/44
f 56/102/45 58/98/45 45/101/45 47/103/45
f 44/94/3 47/97/3 45/104/3 46/95/3
f 5/9/46 1/1/46 49/4/46 50/105/46
f 49/106/47 51/107/47 54/108/47 52/109/47
f 50/110/48 49/111/48 52/112/48 53/113/48
f 21/54/49 5/9/49 50/105/49
f 20/2/50 21/54/50 50/105/50 51/3/50
f 4/114/51 48/115/51 55/93/51 57/92/51
f 48/115/52 3/116/52 56/96/52 55/93/52
f 6/117/53 4/118/53 57/99/53 58/98/53
f 3/119/54 6/117/54 58/98/54 56/102/54
f 61/120/3 62/121/3 66/122/3 65/123/3
f 10/37/11 4/11/11 60/124/11 62/38/11
f 4/11/11 2/10/11 59/125/11 60/124/11
f 2/10/11 8/36/11 61/39/11 59/125/11
f 62/126/12 60/127/12 64/128/12 66/129/12
f 60/127/55 59/130/55 63/131/55 64/128/55
f 59/130/22 61/120/22 65/123/22 63/131/22
f 63/132/11 65/133/11 66/134/11 64/135/11
f 51/107/56 50/136/56 53/137/56 54/108/56
f 52/109/1 54/108/1 53/137/1
f 67/138/8 125/139/8 127/140/8 96/141/8
f 100/142/2 110/143/2 111/144/2 102/145/2
f 75/146/55 77/147/55 72/148/55 68/149/55
f 84/150/4 78/16/4 74/15/4 82/151/4
f 86/152/5 90/153/5 89/19/5 85/18/5
f 86/152/6 85/18/6 76/22/6 83/154/6
f 67/138/55 71/155/55 77/147/55 75/146/55
f 81/156/7 73/25/7 78/16/7 84/150/7
f 79/157/1 98/158/1 99/159/1 95/160/1
f 69/30/9 73/33/9 81/161/9 79/162/9
f 124/163/57 84/150/57 82/151/57 72/164/57
f 80/165/58 137/166/58 138/167/58 82/168/58
f 68/149/12 80/169/12 95/160/12 75/146/12
f 84/150/25 103/170/25 102/171/25 81/156/25
f 80/172/59 87/173/59 90/153/59 86/152/59
f 86/152/60 83/154/60 95/174/60 80/172/60
f 82/175/55 88/176/55 87/173/55 80/172/55
f 74/15/16 70/49/16 88/177/16 82/151/16
f 70/49/17 91/51/17 93/178/17 88/177/17
f 88/176/61 93/179/61 92/180/61 87/173/61
f 79/162/19 83/154/19 76/22/19 69/30/19
f 95/174/55 83/154/55 79/162/55
f 95/160/20 99/159/20 97/181/20 75/146/20
f 97/181/12 99/159/12 98/158/12 96/141/12
f 102/145/24 111/144/24 107/182/24 81/183/24
f 100/184/22 102/171/22 103/170/22 101/185/22
f 124/163/23 101/185/23 103/170/23 84/150/23
f 71/186/21 105/187/21 110/143/21 100/142/21
f 71/188/13 100/184/13 101/185/13 124/163/13
f 87/173/62 92/180/62 90/153/62
f 90/153/27 92/180/27 94/62/27 89/19/27
f 94/63/28 92/180/28 93/179/28 91/64/28
f 96/189/31 108/190/31 104/191/31 67/192/31
f 98/193/30 109/194/30 108/190/30 96/189/30
f 79/195/29 106/196/29 109/197/29 98/198/29
f 81/183/33 107/182/33 106/196/33 79/195/33
f 67/192/32 104/191/32 105/187/32 71/186/32
f 105/187/35 113/199/35 118/200/35 110/143/35
f 111/144/34 119/201/34 115/202/34 107/182/34
f 110/143/36 118/200/36 119/201/36 111/144/36
f 108/190/39 116/203/39 112/204/39 104/191/39
f 109/194/38 117/205/38 116/203/38 108/190/38
f 106/196/37 114/206/37 117/207/37 109/197/37
f 104/191/41 112/204/41 113/199/41 105/187/41
f 107/182/40 115/202/40 114/206/40 106/196/40
f 114/208/9 115/209/9 119/210/9 118/211/9 113/212/9 112/213/9 116/214/9 117/215/9
f 133/216/63 122/217/63 120/218/63 131/219/63
f 131/219/64 120/218/64 123/220/64 132/221/64
f 134/222/65 121/223/65 122/224/65 133/225/65
f 132/226/66 123/227/66 121/223/66 134/222/66
f 120/218/55 122/217/55 121/228/55 123/220/55
f 75/146/67 126/229/67 125/139/67 67/138/67
f 125/230/68 128/231/68 130/232/68 127/233/68
f 126/234/69 129/235/69 128/236/69 125/237/69
f 97/181/70 126/229/70 75/146/70
f 96/141/71 127/140/71 126/229/71 97/181/71
f 72/238/72 133/216/72 131/219/72 124/239/72
f 124/239/73 131/219/73 132/221/73 71/240/73
f 77/241/74 134/222/74 133/225/74 72/242/74
f 71/243/75 132/226/75 134/222/75 77/241/75
f 137/244/55 141/245/55 142/246/55 138/247/55
f 82/168/58 138/167/58 136/248/58 72/148/58
f 72/148/58 136/248/58 135/249/58 68/149/58
f 68/149/58 135/249/58 137/166/58 80/165/58
f 138/250/12 142/251/12 140/252/12 136/253/12
f 136/253/3 140/252/3 139/254/3 135/255/3
f 135/255/22 139/254/22 141/245/22 137/244/22
f 139/256/58 140/257/58 142/258/58 141/259/58
f 127/233/76 130/232/76 129/260/76 126/261/76
f 128/231/8 129/260/8 130/232/8
